<svg width="38" height="38" viewBox="0 0 38 38" fill="none" xmlns="http://www.w3.org/2000/svg">
<g filter="url(#filter0_d_2007_631)">
<circle cx="19.3571" cy="19.3571" r="16.3571" fill="#101010"/>
</g>
<path d="M13.7553 19.728H18.4038C18.6093 19.728 18.8064 19.6464 18.9516 19.5011C19.0969 19.3558 19.1786 19.1588 19.1786 18.9533V12.7553C19.1786 12.5498 19.0969 12.3527 18.9516 12.2074C18.8064 12.0622 18.6093 11.9805 18.4038 11.9805H13.7553C13.5498 11.9805 13.3528 12.0622 13.2075 12.2074C13.0622 12.3527 12.9806 12.5498 12.9806 12.7553V18.9533C12.9806 19.1588 13.0622 19.3558 13.2075 19.5011C13.3528 19.6464 13.5498 19.728 13.7553 19.728ZM12.9806 25.1513C12.9806 25.3568 13.0622 25.5538 13.2075 25.6991C13.3528 25.8444 13.5498 25.926 13.7553 25.926H18.4038C18.6093 25.926 18.8064 25.8444 18.9516 25.6991C19.0969 25.5538 19.1786 25.3568 19.1786 25.1513V22.0523C19.1786 21.8468 19.0969 21.6497 18.9516 21.5044C18.8064 21.3592 18.6093 21.2775 18.4038 21.2775H13.7553C13.5498 21.2775 13.3528 21.3592 13.2075 21.5044C13.0622 21.6497 12.9806 21.8468 12.9806 22.0523V25.1513ZM20.7281 25.1513C20.7281 25.3568 20.8097 25.5538 20.955 25.6991C21.1003 25.8444 21.2973 25.926 21.5028 25.926H26.1513C26.3568 25.926 26.5539 25.8444 26.6992 25.6991C26.8444 25.5538 26.9261 25.3568 26.9261 25.1513V19.728C26.9261 19.5226 26.8444 19.3255 26.6992 19.1802C26.5539 19.0349 26.3568 18.9533 26.1513 18.9533H21.5028C21.2973 18.9533 21.1003 19.0349 20.955 19.1802C20.8097 19.3255 20.7281 19.5226 20.7281 19.728V25.1513ZM21.5028 17.4038H26.1513C26.3568 17.4038 26.5539 17.3222 26.6992 17.1769C26.8444 17.0316 26.9261 16.8345 26.9261 16.629V12.7553C26.9261 12.5498 26.8444 12.3527 26.6992 12.2074C26.5539 12.0622 26.3568 11.9805 26.1513 11.9805H21.5028C21.2973 11.9805 21.1003 12.0622 20.955 12.2074C20.8097 12.3527 20.7281 12.5498 20.7281 12.7553V16.629C20.7281 16.8345 20.8097 17.0316 20.955 17.1769C21.1003 17.3222 21.2973 17.4038 21.5028 17.4038Z" fill="white"/>
<defs>
<filter id="filter0_d_2007_631" x="0.800015" y="0.8" width="37.1143" height="37.1142" filterUnits="userSpaceOnUse" color-interpolation-filters="sRGB">
<feFlood flood-opacity="0" result="BackgroundImageFix"/>
<feColorMatrix in="SourceAlpha" type="matrix" values="0 0 0 0 0 0 0 0 0 0 0 0 0 0 0 0 0 0 127 0" result="hardAlpha"/>
<feOffset/>
<feGaussianBlur stdDeviation="1.1"/>
<feComposite in2="hardAlpha" operator="out"/>
<feColorMatrix type="matrix" values="0 0 0 0 0 0 0 0 0 0 0 0 0 0 0 0 0 0 0.24 0"/>
<feBlend mode="normal" in2="BackgroundImageFix" result="effect1_dropShadow_2007_631"/>
<feBlend mode="normal" in="SourceGraphic" in2="effect1_dropShadow_2007_631" result="shape"/>
</filter>
</defs>
</svg>
