<svg width="24" height="24" viewBox="0 0 24 24" fill="none" xmlns="http://www.w3.org/2000/svg">
<g id="icon">
<path id="Vector" d="M5.75532 12.728H10.4038C10.6093 12.728 10.8064 12.6464 10.9516 12.5011C11.0969 12.3558 11.1786 12.1588 11.1786 11.9533V5.75528C11.1786 5.5498 11.0969 5.35274 10.9516 5.20745C10.8064 5.06215 10.6093 4.98053 10.4038 4.98053H5.75532C5.54984 4.98053 5.35278 5.06215 5.20749 5.20745C5.06219 5.35274 4.98057 5.5498 4.98057 5.75528V11.9533C4.98057 12.1588 5.06219 12.3558 5.20749 12.5011C5.35278 12.6464 5.54984 12.728 5.75532 12.728ZM4.98057 18.1513C4.98057 18.3568 5.06219 18.5538 5.20749 18.6991C5.35278 18.8444 5.54984 18.926 5.75532 18.926H10.4038C10.6093 18.926 10.8064 18.8444 10.9516 18.6991C11.0969 18.5538 11.1786 18.3568 11.1786 18.1513V15.0523C11.1786 14.8468 11.0969 14.6497 10.9516 14.5044C10.8064 14.3592 10.6093 14.2775 10.4038 14.2775H5.75532C5.54984 14.2775 5.35278 14.3592 5.20749 14.5044C5.06219 14.6497 4.98057 14.8468 4.98057 15.0523V18.1513ZM12.7281 18.1513C12.7281 18.3568 12.8097 18.5538 12.955 18.6991C13.1003 18.8444 13.2973 18.926 13.5028 18.926H18.1513C18.3568 18.926 18.5539 18.8444 18.6992 18.6991C18.8444 18.5538 18.9261 18.3568 18.9261 18.1513V12.728C18.9261 12.5226 18.8444 12.3255 18.6992 12.1802C18.5539 12.0349 18.3568 11.9533 18.1513 11.9533H13.5028C13.2973 11.9533 13.1003 12.0349 12.955 12.1802C12.8097 12.3255 12.7281 12.5226 12.7281 12.728V18.1513ZM13.5028 10.4038H18.1513C18.3568 10.4038 18.5539 10.3222 18.6992 10.1769C18.8444 10.0316 18.9261 9.83451 18.9261 9.62903V5.75528C18.9261 5.5498 18.8444 5.35274 18.6992 5.20745C18.5539 5.06215 18.3568 4.98053 18.1513 4.98053H13.5028C13.2973 4.98053 13.1003 5.06215 12.955 5.20745C12.8097 5.35274 12.7281 5.5498 12.7281 5.75528V9.62903C12.7281 9.83451 12.8097 10.0316 12.955 10.1769C13.1003 10.3222 13.2973 10.4038 13.5028 10.4038Z" fill="#0C3E6C"/>
</g>
</svg>
